<svg id="svg" xmlns="http://www.w3.org/2000/svg" xmlns:xlink="http://www.w3.org/1999/xlink" width="400" height="400" viewBox="0, 0, 400,400"><g id="svgg"><path id="path0" d="M194.054 3.582 C 190.873 5.116,175.232 20.271,177.400 19.719 C 194.371 15.394,214.259 33.562,219.182 57.886 C 224.684 85.066,214.609 113.780,187.859 147.163 C 184.967 150.772,182.646 153.879,182.702 154.067 C 182.757 154.255,184.062 157.042,185.602 160.259 C 187.141 163.477,188.400 166.152,188.400 166.205 C 188.400 166.257,189.811 169.247,191.536 172.850 C 193.261 176.452,195.541 181.252,196.604 183.517 C 198.114 186.733,198.675 187.577,199.168 187.374 C 209.079 183.311,229.860 183.802,243.757 188.427 C 272.311 197.931,283.822 216.373,276.807 241.374 C 272.527 256.629,258.972 272.786,244.700 279.646 C 242.323 280.789,241.710 278.825,249.638 295.456 C 259.866 316.909,261.280 321.195,261.240 330.610 C 261.219 335.561,260.085 341.565,258.663 344.252 C 258.328 344.883,288.952 314.489,326.716 276.709 C 376.554 226.849,395.654 207.495,396.388 206.109 C 397.949 203.164,397.885 196.739,396.264 193.600 C 394.553 190.288,209.639 5.397,206.400 3.761 C 202.889 1.986,197.523 1.909,194.054 3.582 M190.870 43.669 C 184.543 44.658,175.553 50.401,169.735 57.170 C 157.513 71.391,154.806 90.572,162.257 110.162 C 163.841 114.326,168.847 125.201,169.179 125.198 C 169.628 125.194,182.056 113.278,185.334 109.708 C 200.442 93.255,208.363 67.160,202.779 52.236 C 200.218 45.390,196.583 42.776,190.870 43.669 M77.318 118.900 C -4.616 200.860,2.401 193.265,2.401 200.000 C 2.401 206.780,-7.214 196.549,98.120 301.864 C 202.943 406.668,193.059 397.400,200.000 397.400 C 206.428 397.400,205.933 397.762,223.760 380.006 L 238.921 364.907 235.760 366.412 C 206.343 380.424,170.466 373.860,160.187 352.586 C 152.837 337.376,167.535 321.219,188.800 321.133 C 222.512 320.997,223.770 357.338,190.255 363.163 L 186.310 363.849 187.394 364.560 C 196.608 370.596,226.044 366.124,237.577 356.935 C 249.485 347.448,253.212 330.442,246.842 314.664 C 245.726 311.903,233.339 285.206,233.029 284.896 C 232.945 284.812,230.294 285.484,227.138 286.390 C 199.890 294.209,168.805 293.060,144.400 283.331 C 95.991 264.033,85.106 223.312,116.598 179.328 C 124.367 168.478,138.889 152.895,154.429 138.732 C 158.371 135.139,161.598 132.066,161.598 131.901 C 161.599 131.737,159.867 127.867,157.749 123.301 C 141.902 89.143,139.859 71.396,149.137 48.500 C 149.605 47.345,149.945 46.400,149.892 46.400 C 149.838 46.400,117.180 79.025,77.318 118.900 M171.763 165.895 C 169.803 168.038,164.330 173.922,159.600 178.973 C 145.452 194.078,139.218 200.834,136.503 204.000 C 104.778 241.003,142.110 287.690,199.800 283.156 C 209.751 282.374,229.200 278.054,229.200 276.626 C 229.200 276.572,227.650 273.214,225.755 269.164 C 223.861 265.114,221.813 260.720,221.205 259.400 C 219.762 256.271,215.244 246.576,212.629 241.000 C 211.495 238.580,208.054 231.155,204.983 224.499 C 198.525 210.501,199.871 211.628,193.400 214.801 C 177.735 222.482,172.400 235.802,178.419 252.206 C 180.178 257.000,185.319 260.801,195.839 265.086 C 203.309 268.128,203.429 268.329,197.334 267.589 C 169.653 264.229,153.397 253.154,152.129 236.794 C 150.950 221.575,164.103 203.712,184.088 193.394 L 189.175 190.767 188.239 188.683 C 187.399 186.815,184.523 180.656,179.328 169.600 C 178.346 167.510,177.173 164.945,176.722 163.900 C 175.667 161.458,175.912 161.360,171.763 165.895 M213.000 209.466 C 212.340 209.546,211.224 209.705,210.520 209.820 L 209.241 210.029 209.978 211.714 C 210.383 212.641,211.701 215.470,212.907 218.000 C 215.547 223.540,225.494 244.522,227.604 249.000 C 236.499 267.887,238.516 272.000,238.887 272.000 C 239.399 272.000,243.767 269.020,246.746 266.637 C 260.612 255.548,263.567 233.647,252.786 221.882 C 244.577 212.923,227.758 207.674,213.000 209.466 " stroke="none" fill="#000000" fill-rule="evenodd"></path></g></svg>