<?xml version="1.0" standalone="no"?>
<!DOCTYPE svg PUBLIC "-//W3C//DTD SVG 20010904//EN"
 "http://www.w3.org/TR/2001/REC-SVG-20010904/DTD/svg10.dtd">
<svg version="1.0" xmlns="http://www.w3.org/2000/svg"
 width="1000.000000pt" height="1000.000000pt" viewBox="0 0 1000.000000 1000.000000"
 preserveAspectRatio="xMidYMid meet">

<g transform="translate(0.000000,1000.000000) scale(0.100000,-0.100000)"
fill="#000000" stroke="none">
<path d="M245 9986 c-96 -30 -167 -92 -212 -184 l-28 -57 0 -4745 0 -4745 26
-55 c33 -70 99 -136 169 -169 l55 -26 4745 0 4745 0 55 26 c70 33 132 95 167
167 l28 57 0 4745 0 4745 -28 57 c-35 72 -97 134 -167 167 l-55 26 -4730 2
c-3795 1 -4738 -1 -4770 -11z m7366 -756 c191 -20 297 -53 412 -128 151 -98
263 -311 317 -600 l11 -63 -38 -47 c-147 -182 -227 -277 -232 -280 -4 -1 -42
40 -85 93 -102 123 -298 313 -419 404 -113 84 -245 168 -374 237 -51 27 -93
52 -93 55 0 14 251 315 273 326 27 16 93 16 228 3z m-5127 -141 c186 -69 378
-277 511 -554 132 -273 200 -568 212 -910 17 -520 -100 -1013 -387 -1625 -40
-85 -73 -159 -73 -165 1 -5 54 -120 120 -255 66 -135 153 -314 193 -398 65
-134 77 -153 94 -149 12 3 58 17 104 31 259 79 518 53 799 -80 125 -60 289
-171 369 -252 303 -304 395 -839 229 -1339 -70 -210 -181 -389 -331 -532 -52
-50 -94 -92 -94 -94 0 -4 77 -165 260 -542 154 -318 207 -478 231 -690 40
-363 -110 -691 -404 -883 -127 -83 -322 -154 -461 -167 -117 -12 -131 -12
-211 -4 -206 23 -396 119 -551 280 -223 233 -281 478 -168 716 122 258 447
359 708 220 119 -63 225 -202 256 -337 67 -282 -113 -571 -390 -631 -51 -11
-53 -12 -34 -26 51 -40 110 -57 209 -61 114 -5 202 8 329 49 273 89 420 235
487 485 17 63 22 109 23 229 1 226 -40 400 -151 633 -212 447 -301 632 -306
632 -2 0 -42 -18 -88 -39 -103 -48 -281 -103 -409 -126 -130 -23 -380 -31
-510 -16 -609 69 -1135 403 -1414 899 -207 367 -266 816 -170 1292 52 260 122
456 264 745 114 233 228 426 427 722 l142 213 -81 167 c-173 361 -243 529
-317 758 -111 343 -144 636 -106 959 75 645 344 974 689 845z m4516 -519 c319
-140 611 -388 805 -683 36 -54 38 -60 24 -81 -23 -37 -1742 -2126 -1748 -2125
-3 0 -35 37 -71 81 -203 254 -503 499 -794 648 -58 30 -105 58 -103 62 1 4
398 489 881 1078 760 925 882 1069 900 1064 12 -4 59 -24 106 -44z m-2033
-2414 c324 -139 584 -343 786 -618 29 -40 63 -89 75 -110 l23 -36 -49 -59 -49
-58 -438 -43 c-241 -23 -440 -41 -442 -39 -2 2 -23 202 -47 443 l-43 439 46
57 c25 31 49 57 53 57 3 1 42 -14 85 -33z m2590 -759 c334 -99 580 -234 774
-427 218 -215 339 -467 359 -745 25 -361 -107 -779 -373 -1177 -226 -337 -581
-629 -1052 -867 -405 -204 -785 -344 -1491 -550 -93 -27 -208 -61 -257 -75
-131 -39 -165 -33 -170 28 -1 19 5 31 23 41 35 20 188 90 225 103 255 88 346
129 685 300 418 212 463 238 605 346 375 284 759 747 910 1096 23 53 61 162
83 241 134 472 134 883 2 1154 -156 319 -454 457 -902 416 -148 -14 -207 -29
-302 -79 -183 -96 -268 -247 -233 -414 l8 -37 158 6 c177 7 256 -3 331 -43
126 -66 180 -174 180 -359 0 -213 -56 -326 -200 -408 -91 -52 -166 -70 -285
-71 -281 -1 -491 135 -599 389 -28 65 -30 79 -31 195 0 106 4 136 24 195 108
320 448 609 860 730 151 44 231 54 396 51 137 -3 160 -7 272 -39z m1858 -802
c36 -23 57 -46 84 -95 33 -60 36 -71 36 -150 0 -101 -23 -175 -69 -227 -92
-106 -283 -112 -384 -12 -51 51 -81 113 -88 188 -21 192 114 336 307 328 53
-2 76 -8 114 -32z m-272 -1136 c109 -30 181 -171 156 -306 -26 -141 -103 -218
-242 -243 -107 -20 -186 24 -239 135 -60 128 -23 305 78 374 66 46 168 62 247
40z"/>
<path d="M2566 8528 c-192 -43 -399 -345 -457 -668 -21 -113 -18 -431 4 -545
23 -116 70 -276 114 -390 56 -141 183 -400 191 -389 53 60 218 326 281 451 59
117 90 208 125 367 53 234 73 474 54 655 -27 265 -139 506 -243 523 -16 3 -48
1 -69 -4z"/>
<path d="M2617 5598 c-13 -24 -69 -124 -125 -223 -55 -99 -157 -281 -227 -405
-253 -447 -297 -545 -331 -740 -23 -136 -15 -360 19 -490 104 -401 381 -747
746 -930 308 -154 723 -170 1069 -40 57 22 125 52 152 67 l48 28 -97 205 c-54
113 -132 275 -173 360 -41 85 -163 343 -273 572 l-198 417 -27 -14 c-60 -31
-152 -110 -196 -168 -56 -73 -89 -145 -110 -236 -22 -92 -14 -298 15 -401 55
-193 105 -278 211 -355 44 -32 268 -153 310 -167 8 -3 12 -8 9 -12 -9 -9 -188
18 -289 44 -206 53 -354 134 -490 270 -81 81 -103 109 -143 190 -63 129 -87
233 -87 387 0 180 33 317 117 487 84 171 208 324 348 431 41 32 75 63 75 70 0
7 -45 106 -101 221 -55 115 -109 227 -119 249 -10 22 -39 82 -63 133 l-46 93
-24 -43z"/>
<path d="M3440 4491 c-19 -3 -34 -12 -33 -18 3 -15 144 -308 507 -1056 58
-120 129 -268 157 -327 61 -128 56 -128 149 -17 75 88 142 219 167 324 26 112
26 408 0 508 -43 161 -143 321 -262 418 -69 55 -212 129 -300 153 -65 18 -323
28 -385 15z"/>
</g>
</svg>
